# AST/ASF file generated using VICON BodyLanguage
# -----------------------------------------------
:version 1.10
:name VICON
:units
  mass 1.0
  length 0.45
  angle deg
:documentation
   .ast/.asf automatically generated from VICON data using
   VICON BodyBuilder and BodyLanguage model FoxedUp or BRILLIANT.MOD
:root
   order TX TY TZ RX RY RZ
   axis XYZ
   position 0 0 0  
   orientation 0 0 0 
:bonedata
  begin
     id 1 
     name lhipjoint
     direction 0.662698 -0.695252 0.27831 
     length 2.53073 
     axis 0 0 0  XYZ
  end
  begin
     id 2 
     name lfemur
     direction 0.34202 -0.939693 0  
     length 7.16147  
     axis 0 0 20  XYZ
    dof rx ry rz
    limits (-160.0 20.0)
           (-70.0 70.0)
           (-60.0 70.0)
  end
  begin
     id 3 
     name ltibia
     direction 0.34202 -0.939693 0   
     length 7.63967   
     axis 0 0 20   XYZ
    dof rx
    limits (-10.0 170.0)
  end
  begin
     id 4 
     name lfoot
     direction 0.0938457 -0.257721 0.961651   
     length 1.89793   
     axis -90 7.62852e-016 20   XYZ
    dof rx rz
    limits (-45.0 90.0)
           (-70.0 20.0)
  end
  begin
     id 5 
     name ltoes
     direction -0.00116841 -0.0030592 0.999995   
     length 0.955649   
     axis -90 7.62852e-016 20   XYZ
    dof rx
    limits (-90.0 20.0)
  end
  begin
     id 6 
     name rhipjoint
     direction -0.649445 -0.705948 0.282592   
     length 2.49238  
     axis 0 0 0  XYZ 
  end
  begin
     id 7 
     name rfemur
     direction -0.34202 -0.939693 0   
     length 6.90728   
     axis 0 0 -20   XYZ
    dof rx ry rz
    limits (-160.0 20.0)
           (-70.0 70.0)
           (-70.0 60.0)
  end
  begin
     id 8 
     name rtibia
     direction -0.34202 -0.939693 0   
     length 7.72868   
     axis 0 0 -20   XYZ
    dof rx
    limits (-10.0 170.0)
 end
 begin
     id 9 
     name rfoot
     direction -0.0920068 -0.252865 0.963117   
     length 1.97476  
     axis -90 -7.62852e-016 -20   XYZ
    dof rx rz
    limits (-45.0 90.0)
           (-20.0 70.0)
  end
  begin
     id 10 
     name rtoes
     direction 0.000391322 0.00230649 0.999997   
     length 0.992641   
     axis -90 -7.62852e-016 -20   XYZ
    dof rx
    limits (-90.0 20.0)
  end
  begin
     id 11 
     name lowerback
     direction -0.00875327 0.998321 -0.0572635   
     length 2.20024   
     axis 0 0 0   XYZ
    dof rx ry rz
    limits (-20.0 45.0)
           (-30.0 30.0)
           (-30.0 30.0)
  end
  begin
     id 12 
     name upperback
     direction 0.00753931 0.999972 -0.000360425   
     length 2.20538   
     axis 0 0 0   XYZ
    dof rx ry rz
    limits (-20.0 45.0)
           (-30.0 30.0)
           (-30.0 30.0)
  end
  begin
     id 13 
     name thorax
     direction 0.0117767 0.999601 0.0256663   
     length 2.21508   
     axis 0 0 0   XYZ
    dof rx ry rz
    limits (-20.0 45.0)
           (-30.0 30.0)
           (-30.0 30.0)
  end
  begin
     id 14 
     name lowerneck
     direction 0.060228 0.994909 0.0807986   
     length 1.7607   
     axis 0 0 0   XYZ
    dof rx ry rz
    limits (-20.0 45.0)
           (-30.0 30.0)
           (-30.0 30.0)
  end
  begin
     id 15 
     name upperneck
     direction -0.0563647 0.959594 -0.275685   
     length 1.75612   
     axis 0 0 0   XYZ
    dof rx ry rz
    limits (-20.0 45.0)
           (-30.0 30.0)
           (-30.0 30.0)
  end
  begin
     id 16
     name head
     direction -0.0161544 0.99458 -0.102714  
     length 1.79288  
     axis 0 0 0   XYZ
    dof rx ry rz
    limits (-20.0 45.0)
           (-30.0 30.0)
           (-30.0 30.0)
  end
  begin
     id 17 
     name lclavicle
     direction 0.93913 0.332189 -0.087669  
     length 3.52087  
     axis 0 0 0   XYZ
    dof ry rz
    limits (-20.0 10.0)
           (0.0 20.0)
  end
  begin
     id 18 
     name lhumerus
     direction 1 -4.48974e-011 -2.70836e-027   
     length 5.35289   
     axis -180 -30 -90   XYZ
    dof rx ry rz
    limits (-60.0 90.0)
           (-90.0 90.0)
           (-90.0 90.0)
  end
  begin
     id 19
     name lradius
     direction 1 -4.48961e-011 -9.76021e-027   
     length 3.27727   
     axis -180 -30 -90   XYZ
    dof rx
    limits (-10.0 170.0)
  end
  begin
     id 20
     name lwrist
     direction 1 -4.49103e-011 -2.23668e-026   
     length 1.63864   
     axis 1.44924e-014 90 90   XYZ
    dof ry
    limits (-180.0 0.0)
 end
  begin
     id 21 
     name lhand
     direction 1 3.0697e-005 0.000161777   
     length 0.54443   
     axis 2.85318e-014 90 90   XYZ
    dof rx rz
    limits (-90.0 90.0)
           (-45.0 45.0)
  end
  begin
     id 22 
     name lfingers
     direction 1 -4.49027e-011 -8.9447e-026   
     length 0.438912   
     axis 5.70628e-014 90 90   XYZ
    dof rx
    limits (0.0 90.0)
  end
  begin
     id 23
     name lthumb
     direction 0.707058 2.6516e-005 0.707156   
     length 0.630274   
     axis -90 45 -3.53137e-014   XYZ
    dof rx rz
    limits (-45.0 45.0)
           (-45.0 45.0)
  end
  begin
     id 24 
     name rclavicle
     direction -0.95274 0.284984 -0.105215   
     length 3.43401  
     axis 0 0 0   XYZ 
    dof ry rz
    limits (-10.0 20.0)
           (-20.0 0.0)
  end
  begin
     id 25 
     name rhumerus
     direction -0.999999 -0.000575019 -0.00106829  
     length 5.52077   
     axis -180 30 90   XYZ
    dof rx ry rz
    limits (-90.0 60.0)
           (-90.0 90.0)
           (-90.0 90.0)
  end
  begin
     id 26 
     name rradius
     direction -1 -4.4879e-011 -6.35415e-027   
     length 3.32364   
     axis -180 30 90   XYZ
    dof rx
    limits (-10.0 170.0)
  end
  begin
     id 27 
     name rwrist
     direction -1 -4.49048e-011 -9.98542e-027   
     length 1.66182   
     axis 6.32482e-015 -90 -90   XYZ
    dof ry
    limits (-180.0 0.0)
  end
  begin
     id 28
     name rhand
     direction -1 -4.48978e-011 -1.99771e-026   
     length 0.732235   
     axis 1.27479e-014 -90 -90   XYZ
    dof rx rz
    limits (-90.0 90.0)
           (-45.0 45.0)
  end
  begin
     id 29
     name rfingers
     direction -1 -4.49144e-011 -3.99245e-026   
     length 0.590347   
     axis 2.5496e-014 -90 -90   XYZ
    dof rx
    limits (0.0 90.0)
  end
  begin
     id 30
     name rthumb
     direction -0.707107 -6.35121e-011 0.707107   
     length 0.847624   
     axis -90 -45 -2.82974e-014   XYZ
    dof rx rz
    limits (-45.0 45.0)
           (-45.0 45.0)
  end
:hierarchy
  begin
    root lhipjoint rhipjoint lowerback
    lhipjoint lfemur
    lfemur ltibia
    ltibia lfoot
    lfoot ltoes
    rhipjoint rfemur
    rfemur rtibia
    rtibia rfoot
    rfoot rtoes
    lowerback upperback
    upperback thorax
    thorax lowerneck lclavicle rclavicle
    lowerneck upperneck
    upperneck head
    lclavicle lhumerus
    lhumerus lradius
    lradius lwrist
    lwrist lhand lthumb
    lhand lfingers
    rclavicle rhumerus
    rhumerus rradius
    rradius rwrist
    rwrist rhand rthumb
    rhand rfingers
  end

#!OML:ASF G:\Work\Work\Patient Classification 1\Elijah\terrain1\Elijah.ASF
:FULLY-SPECIFIED
:DEGREES
1033
root 15.1652 19.817 -21.034 188.131 -28.1399 178.83
lowerback 4.60416 -0.490849 -1.27196
upperback 1.07101 -0.735221 0.611035
thorax -1.45672 -0.376053 1.38328
lowerneck 0.241584 20.0384 12.0082
upperneck 25.6436 29.5639 -16.2229
head 12.9896 12.6982 -3.87151
rclavicle 1.05853e-014 3.57812e-015
rhumerus -47.8199 5.12129 -86.4248
rradius 37.2021
rwrist -1.5179
rhand -12.9488 23.4032
rfingers 7.12502
rthumb 13.1426 -6.16265
lclavicle 1.05853e-014 3.57812e-015
lhumerus -48.4898 -1.69426 98.7917
lradius 77.6491
lwrist 2.07383
lhand -16.9329 18.4101
lfingers 7.12502
lthumb 9.30007 48.1849
rfemur -31.3723 15.1093 13.7838
rtibia 36.0524
rfoot -19.0606 7.04652
rtoes -24.3472
lfemur -20.9172 -12.5166 -25.1397
ltibia 41.9236
lfoot -16.1241 -18.2043
ltoes -7.60461
1034
root 15.1572 19.8026 -21.0916 188.121 -29.1964 178.836
lowerback 4.73766 -0.338548 -0.839604
upperback 1.03113 -0.512488 0.603936
thorax -1.5835 -0.265164 1.12198
lowerneck 0.164606 19.7128 11.4081
upperneck 25.7535 28.9971 -15.6634
head 12.7243 12.4489 -3.73158
rclavicle -9.29815e-014 1.63003e-014
rhumerus -47.7719 4.31179 -85.8717
rradius 36.8901
rwrist -1.29015
rhand -13.3672 23.6541
rfingers 7.12502
rthumb 12.7392 -5.93725
lclavicle -9.29815e-014 1.63003e-014
lhumerus -49.6942 -2.01009 98.9798
lradius 77.9921
lwrist 1.88753
lhand -17.282 17.8895
lfingers 7.12502
lthumb 8.96324 47.6791
rfemur -30.9854 14.798 13.9577
rtibia 35.662
rfoot -19.0299 7.10803
rtoes -23.8677
lfemur -20.9898 -12.6249 -25.0152
ltibia 42.3259
lfoot -16.3881 -18.8595
ltoes -8.52665
1035
root 15.1425 19.7865 -21.1186 188.417 -30.1147 178.879
lowerback 4.92705 -0.197653 -0.186357
upperback 0.845596 -0.287981 0.623762
thorax -1.88864 -0.15304 0.763946
lowerneck -0.311721 19.5036 10.4849
upperneck 26.0242 28.6083 -14.9586
head 12.5599 12.2237 -3.4241
rclavicle -2.53947e-014 -1.59028e-015
rhumerus -47.661 3.48492 -85.1117
rradius 36.6667
rwrist -0.827617
rhand -13.2834 23.5367
rfingers 7.12502
rthumb 12.82 -6.04964
lclavicle -2.53947e-014 -1.59028e-015
lhumerus -51.0175 -2.15785 99.1073
lradius 78.699
lwrist 1.85129
lhand -17.4233 18.22
lfingers 7.12502
lthumb 8.82683 48.0154
rfemur -31.0548 14.2831 14.0094
rtibia 35.3051
rfoot -18.6114 7.33993
rtoes -23.6444
lfemur -21.5972 -12.8016 -24.8722
ltibia 42.8544
lfoot -16.7261 -19.0581
ltoes -11.1274
1036
root 15.141 19.783 -21.2039 188.398 -31.8149 178.783
lowerback 4.77529 -0.347843 -0.115799
upperback 0.964358 -0.485692 0.778833
thorax -1.67819 -0.254051 0.894416
lowerneck -0.624523 19.3401 9.94315
upperneck 26.1039 28.3815 -14.7612
head 12.485 12.0757 -3.31338
rclavicle 4.40308e-014 -7.55382e-015
rhumerus -47.4508 2.9625 -84.5044
rradius 36.4204
rwrist -0.678148
rhand -13.1774 23.5032
rfingers 7.12502
rthumb 12.9222 -6.07665
lclavicle 4.40308e-014 -7.55382e-015
lhumerus -51.6896 -1.87931 99.1429
lradius 78.7897
lwrist 1.60995
lhand -17.6968 18.5591
lfingers 7.12502
lthumb 8.56295 48.3654
rfemur -30.2628 14.0603 14.187
rtibia 34.9758
rfoot -18.5569 6.30858
rtoes -23.6697
lfemur -21.6757 -13.3302 -24.7113
ltibia 43.4666
lfoot -17.0627 -19.7215
ltoes -13.5524
1037
root 15.132 19.7801 -21.2878 188.393 -32.6024 178.849
lowerback 4.42989 -0.155466 0.0112356
upperback 1.02501 -0.224295 0.861032
thorax -1.42727 -0.124975 0.889679
lowerneck -0.688509 19.1209 9.66425
upperneck 26.1662 28.0603 -14.587
head 12.3908 11.9242 -3.28216
rclavicle -3.66758e-014 1.03368e-014
rhumerus -47.3999 2.3844 -83.9979
rradius 36.2105
rwrist -0.713536
rhand -13.1597 23.2193
rfingers 7.12502
rthumb 12.9392 -6.35955
lclavicle -3.66758e-014 1.03368e-014
lhumerus -52.3632 -1.5716 99.0501
lradius 78.6057
lwrist 1.33774
lhand -18.0429 18.5905
lfingers 7.12502
lthumb 8.22892 48.4103
rfemur -29.7401 14.0872 14.4551
rtibia 34.6522
rfoot -18.9431 5.2074
rtoes -26.1506
lfemur -21.8948 -13.1597 -24.5323
ltibia 44.2198
lfoot -17.3152 -20.2101
ltoes -15.5686
1038
root 15.1151 19.7764 -21.3366 188.36 -33.4556 178.901
lowerback 4.50574 -0.0138307 0.446054
upperback 0.995805 -0.0150966 0.893382
thorax -1.50284 -0.0222892 0.667422
lowerneck -0.810879 18.9408 9.2953
upperneck 26.2933 27.7737 -14.2656
head 12.2989 11.7872 -3.17604
rclavicle 4.59193e-014 9.54166e-015
rhumerus -47.3634 1.8107 -83.4533
rradius 36.1132
rwrist -0.838051
rhand -13.0709 22.6091
rfingers 7.12502
rthumb 13.0249 -6.96426
lclavicle 4.59193e-014 9.54166e-015
lhumerus -53.1754 -1.2712 98.7983
lradius 78.4873
lwrist 1.49884
lhand -17.8883 18.1827
lfingers 7.12502
lthumb 8.3781 47.9965
rfemur -29.1751 13.9194 14.6553
rtibia 34.326
rfoot -18.5695 5.1766
rtoes -21.4936
lfemur -22.2151 -13.2585 -24.4593
ltibia 45.0769
lfoot -17.3797 -20.3892
ltoes -17.6022
1039
root 15.1023 19.7688 -21.3865 188.269 -34.4451 178.927
lowerback 4.66652 0.0229212 0.782101
upperback 1.02003 0.0495048 0.957506
thorax -1.56805 0.00734385 0.541156
lowerneck -1.06535 18.8182 8.82334
upperneck 26.4123 27.5684 -13.8925
head 12.2176 11.6765 -3.01014
rclavicle 5.96354e-015 -1.47101e-014
rhumerus -47.2581 1.34633 -82.9722
rradius 35.9485
rwrist -1.10086
rhand -13.3882 22.8341
rfingers 7.12502
rthumb 12.719 -6.75853
lclavicle 5.96354e-015 -1.47101e-014
lhumerus -54.0057 -0.856731 98.3978
lradius 78.46
lwrist 1.56687
lhand -13.8264 30.1471
lfingers 7.12502
lthumb 12.2965 59.7655
rfemur -28.4578 13.837 14.8605
rtibia 34.0118
rfoot -18.8216 4.76913
rtoes -15.7476
lfemur -22.5703 -13.4327 -24.4074
ltibia 46.1067
lfoot -17.3034 -20.576
ltoes -19.2046
1040
root 15.0924 19.762 -21.4409 188.193 -35.5046 178.941
lowerback 4.74144 -0.0195969 0.976621
upperback 1.06531 0.00119452 1.06437
thorax -1.56316 -0.0188941 0.544691
lowerneck -1.18317 18.7034 8.60915
upperneck 26.4434 27.4173 -13.8026
head 12.1792 11.5962 -2.97244
rclavicle 6.41081e-014 3.97569e-016
rhumerus -47.0658 1.02804 -82.5473
rradius 35.6612
rwrist -1.08197
rhand -14.0601 23.2615
rfingers 7.12502
rthumb 12.0711 -6.37037
lclavicle 6.41081e-014 3.97569e-016
lhumerus -54.8079 -0.174887 97.9058
lradius 78.2786
lwrist 1.29809
lhand -16.3971 20.5946
lfingers 7.12502
lthumb 9.81701 50.3458
rfemur -27.728 13.7766 15.0685
rtibia 33.734
rfoot -19.1624 2.76671
rtoes -20.135
lfemur -23.0141 -13.5321 -24.3446
ltibia 47.2851
lfoot -17.1036 -20.8955
ltoes -20.6522
